<?xml version="1.0" encoding="utf-8"?>
<!-- Generator: Adobe Illustrator 21.0.2, SVG Export Plug-In . SVG Version: 6.00 Build 0)  -->
<svg version="1.1" id="Layer_1" xmlns="http://www.w3.org/2000/svg" xmlns:xlink="http://www.w3.org/1999/xlink" x="0px" y="0px"
	 viewBox="0 0 247.5 251.9" style="enable-background:new 0 0 247.5 251.9;" xml:space="preserve">
<style type="text/css">
	.st0{fill:none;stroke:#48535F;stroke-width:10;stroke-miterlimit:10;}
</style>
<g id="QOS8tg.tif">
	<g>
		<path class="st0" d="M84.1,225c20,0,40.1,0,60.1,0c-2.6,11.6-16.6,21.6-30.2,21.5C100.5,246.5,86.5,236.4,84.1,225z"/>
		<path class="st0" d="M148.2,203.7c17.5,0,34.9,0,52.4,0c6.8,0,11.6-4.5,11.7-10.7c0.1-5.6-4.1-10.7-9.6-10.8
			c-9-0.2-14.7-5.1-18.9-12.4c-5-8.5-7.5-17.8-9.4-27.3c-4.3-21.4-5.4-43.2-5.1-64.9c0.2-16.1-7-27.9-19.8-36.8
			c-6.3-4.4-20.4-9.3-20.4-9.3s-0.5,1.2-0.5-9.4c0-8.6-5.2-16.2-14.5-16.2s-13.3,7.6-13.3,16.2c0,10.6-0.5,9.4-0.5,9.4
			s-14,5-20.4,9.3c-12.9,8.9-20,20.6-19.8,36.8c0.3,21.8-0.9,43.5-5.1,64.9c-1.9,9.5-4.4,18.9-9.4,27.3c-4.3,7.2-9.9,12.1-18.9,12.4
			c-5.5,0.1-9.7,5.2-9.6,10.8c0.1,6.2,4.9,10.7,11.7,10.7c17.5,0,34.9,0,52.4,0H148.2z"/>
	</g>
</g>
</svg>
