<?xml version="1.0" encoding="utf-8"?>
<!-- Generator: Adobe Illustrator 21.1.0, SVG Export Plug-In . SVG Version: 6.00 Build 0)  -->
<svg version="1.1" id="Layer_1" xmlns="http://www.w3.org/2000/svg" xmlns:xlink="http://www.w3.org/1999/xlink" x="0px" y="0px"
	 viewBox="0 0 80.3 79.6" style="enable-background:new 0 0 80.3 79.6;" xml:space="preserve">
<style type="text/css">
	.st0{fill:#FFFFFF;}
</style>
<g>
	<g>
		<rect x="1.9" y="26.7" class="st0" width="16.5" height="52.9"/>
		<path class="st0" d="M10.1,19.5c-5.3,0-9.5-4.3-9.5-9.5c0-5.3,4.3-9.5,9.5-9.5c5.3,0,9.5,4.3,9.5,9.5
			C19.7,15.2,15.4,19.5,10.1,19.5z"/>
		<path class="st0" d="M80,79.6H63.6V53.9c0-6.1-0.1-14-8.6-14c-8.6,0-9.9,6.7-9.9,13.6v26.2H28.7v-53h15.8v7.2h0.2
			c2.2-4.2,7.6-8.6,15.6-8.6C77,25.3,80,36.3,80,50.5V79.6z"/>
	</g>
</g>
</svg>
