<?xml version="1.0" encoding="utf-8"?>
<!-- Generator: Adobe Illustrator 21.1.0, SVG Export Plug-In . SVG Version: 6.00 Build 0)  -->
<svg version="1.1" id="Layer_1" xmlns="http://www.w3.org/2000/svg" xmlns:xlink="http://www.w3.org/1999/xlink" x="0px" y="0px"
	 viewBox="0 0 1000 162" style="enable-background:new 0 0 1000 162;" xml:space="preserve">
<style type="text/css">
	.st0{fill:#FFFFFF;}
</style>
<g id="live">
	<polygon class="st0" points="555.5,1.2 511.5,1.2 511.5,160.9 632.5,160.9 632.5,122.1 555.5,122.1 	"/>
	<rect x="643.2" y="1.2" class="st0" width="44.3" height="159.7"/>
	<polygon class="st0" points="780.1,102.2 744,1.2 694.7,1.2 759.3,162 800.1,162 864.6,1.2 816.3,1.2 	"/>
	<polygon class="st0" points="914.6,123.2 914.6,97.9 990.9,97.9 990.9,63 914.6,63 914.6,38.8 998.9,38.8 998.9,1.2 871,1.2 
		871,160.9 1000,160.9 1000,123.2 	"/>
</g>
<g id="amp">
	<polygon class="st0" points="67.7,0 0,160.8 46.3,160.8 57.7,132.3 70.6,97.9 88.6,52.5 106.3,97.9 119,132.3 130.6,160.8 
		177.8,160.8 110.2,0 	"/>
	<polygon class="st0" points="370,1.2 353.2,1.1 306.6,1.1 268.7,63 230.8,1.1 184.2,1.1 184.2,160.8 227.3,160.8 227.3,69.6 
		267.8,131.7 268.7,131.7 309.3,69.1 309.3,160.8 345.2,160.8 349.7,101.7 331,104.8 	"/>
	<path class="st0" d="M497.3,33.5c-3.1-7-7.5-12.9-13.3-17.7c-5.8-4.8-12.7-8.4-20.9-11c-8.2-2.5-17.3-3.8-27.3-3.8h-59l-4.5,72.7
		l18.7-3.1l-38.6,90.1h15.3h44.1v-45.6h21.8c9.8,0,19-1.2,27.4-3.7c8.4-2.4,15.6-6.1,21.7-11c6-4.9,10.8-10.9,14.2-18
		c3.4-7.1,5.1-15.4,5.1-24.9v-0.5C501.9,48.5,500.4,40.5,497.3,33.5z M457.9,59.8c0,6.4-2.2,11.5-6.7,15.2
		c-4.5,3.7-10.7,5.6-18.5,5.6h-20.9V38.3h20.7c8,0,14.3,1.8,18.7,5.4c4.5,3.6,6.7,8.8,6.7,15.6V59.8z"/>
</g>
</svg>
