<?xml version="1.0" encoding="utf-8"?>
<!-- Generator: Adobe Illustrator 21.1.0, SVG Export Plug-In . SVG Version: 6.00 Build 0)  -->
<svg version="1.1" id="Layer_1" xmlns="http://www.w3.org/2000/svg" xmlns:xlink="http://www.w3.org/1999/xlink" x="0px" y="0px"
	 viewBox="0 0 370.4 60" style="enable-background:new 0 0 370.4 60;" xml:space="preserve">
<style type="text/css">
	.st0{fill:#2EB2A3;}
</style>
<g>
	<g id="live">
		<polygon class="st0" points="205.7,0.4 189.4,0.4 189.4,59.6 234.3,59.6 234.3,45.2 205.7,45.2 		"/>
		<rect x="238.2" y="0.4" class="st0" width="16.4" height="59.1"/>
		<polygon class="st0" points="288.9,37.9 275.6,0.4 257.3,0.4 281.2,60 296.3,60 320.2,0.4 302.3,0.4 		"/>
		<polygon class="st0" points="338.7,45.6 338.7,36.3 367,36.3 367,23.3 338.7,23.3 338.7,14.4 370,14.4 370,0.4 322.6,0.4 
			322.6,59.6 370.4,59.6 370.4,45.6 		"/>
	</g>
	<g id="amp">
		<polygon points="25.1,0 0,59.6 17.1,59.6 21.4,49 26.1,36.3 32.8,19.4 39.4,36.3 44.1,49 48.4,59.6 65.9,59.6 40.8,0 		"/>
		<polygon points="137,0.4 130.8,0.4 113.6,0.4 99.5,23.3 85.5,0.4 68.2,0.4 68.2,59.6 84.2,59.6 84.2,25.8 99.2,48.8 99.5,48.8 
			114.6,25.6 114.6,59.6 127.9,59.6 129.5,37.7 122.6,38.8 		"/>
		<path d="M184.2,12.4c-1.1-2.6-2.8-4.8-4.9-6.6s-4.7-3.1-7.7-4.1c-3-0.9-6.4-1.4-10.1-1.4h-21.9l-1.7,26.9l6.9-1.1l-14.3,33.4h5.7
			h16.3V42.6h8.1c3.6,0,7-0.4,10.1-1.4c3.1-0.9,5.8-2.3,8-4.1c2.2-1.8,4-4,5.3-6.7c1.3-2.6,1.9-5.7,1.9-9.2v-0.2
			C185.9,18,185.3,15,184.2,12.4z M169.6,22.1c0,2.4-0.8,4.3-2.5,5.6c-1.7,1.4-4,2.1-6.9,2.1h-7.7V14.2h7.7c3,0,5.3,0.7,6.9,2
			c1.7,1.3,2.5,3.3,2.5,5.8L169.6,22.1L169.6,22.1z"/>
	</g>
</g>
</svg>
