<?xml version="1.0" encoding="utf-8"?>
<!-- Generator: Adobe Illustrator 21.1.0, SVG Export Plug-In . SVG Version: 6.00 Build 0)  -->
<svg version="1.1" id="svg_x24_gm" xmlns="http://www.w3.org/2000/svg" xmlns:xlink="http://www.w3.org/1999/xlink" x="0px" y="0px"
	 viewBox="0 0 1396.2 166.4" style="enable-background:new 0 0 1396.2 166.4;" xml:space="preserve">
<style type="text/css">
	.st0{fill:#FFFFFF;}
</style>
<g>
	<path class="st0" d="M47.4,74.8c14.5,0,26.9,23.2,29.1,59.8H77c2.2-7.5,2.7-15.1,2.7-22.6c0-26.4-12.4-50.1-29.1-50.1
		c-15.6,0-17.2,12.9-13.5,18.8C38.8,78.6,41.5,74.8,47.4,74.8z M63.5,140.5c0.5-3.2,1.1-5.9,1.1-10.8c0-16.7-10.2-43.6-29.1-43.6
		c-14.5,0-16.7,14-11.8,18.3c1.1-3.2,4.3-7,10.2-7C49.5,97.5,60.8,121.7,63.5,140.5z M158.8,80.8c1.6-2.2,2.2-4.8,2.2-6.5
		c0-6.5-5.9-12.4-14.5-12.4c-25.3,0-34.5,44.2-27.5,72.7h0.5c2.7-38.8,15.1-59.8,29.1-59.8C155.6,74.3,158.3,79.2,158.8,80.8
		L158.8,80.8z M159.9,86.7c-23.7,0-32.8,40.4-28,53.8h0.5c2.7-20.5,14-43.1,28.5-43.1c8.1,0,10.2,4.8,10.2,7
		C176.6,99.6,173.4,86.7,159.9,86.7L159.9,86.7z M102.3,154.5c-14.5,0-29.1,3.2-41.5,11.3v0.5c5.9-1.1,20.5-2.7,38.2-2.7
		c19.4,0,26.4,2.7,29.6,2.7c2.2,0,3.2-1.1,3.2-3.2C131.9,156.7,117.9,154.5,102.3,154.5z M102.3,139.5c-12.4,0-29.1,3.2-41.5,11.3
		v0.5c4.8-0.5,21-2.7,38.8-2.7c16.7,0,26.4,2.7,29.1,2.7c2.2,0,3.2-1.1,3.2-3.2C131.9,141.6,117.9,139.5,102.3,139.5z M158.8,43.1
		c-1.6,0.5-4.3,3.2-4.3,7c0,4.8,3.2,14,16.7,14c14,0,23.2-10.2,23.2-24.2s-10.2-26.4-32.3-26.4c-26.4,0-60.3,23.7-60.3,80.8
		c0,10.8,1.1,22.6,3.8,35.5h0.5c0-70,26.4-103.4,54.9-103.4c12.4,0,18.8,7.5,18.8,15.6c0,7.5-4.3,12.9-11.3,12.9
		C160.5,54.9,157.8,47.9,158.8,43.1z M35.5,51.7c-1.1,1.6-4.3,4.3-9.7,4.3C19.4,56,14,50.6,14,43.1c0-7,5.9-14,16.7-14
		c26.9,0,58.7,38.8,58.7,87.8c0,3.2,0,8.6-0.5,12.9h0.5c2.7-8.6,5.4-21.5,5.4-30.7c0-43.1-29.6-84.5-64.1-84.5
		C10.2,14.5,0,28,0,40.4c0,13.5,8.1,23.7,20.5,23.7C30.2,64.1,35.5,57.1,35.5,51.7z M31.8,0c-2.7,0-4.3,1.6-4.3,3.2
		c0,2.7,1.6,3.8,4.8,4.8c9.7,3.8,28,6.5,48.5,6.5c36.6,0,74.3-5.4,90.5-11.8V2.2c-13.5,1.1-36.6,2.7-73.8,2.7
		C46.8,4.8,36.6,0,31.8,0z M60.8,19.4c4.3,2.2,24.2,10.8,33.4,44.2c0.5,2.2,1.6,2.7,2.7,2.7c2.2,0,3.2-1.6,3.2-4.3
		c0-15.6-8.6-29.1-15.6-35C76.5,20.5,66.8,18.8,60.8,19.4L60.8,19.4z M110.4,24.2c6.5-6.5,15.6-9.2,25.3-8.1v0.5
		c-3.2,1.1-10.8,3.8-18.8,11.8c-6.5,7-10.8,15.1-12.9,22.1C101.8,36.6,106.1,28.5,110.4,24.2L110.4,24.2z"/>
	<path class="st0" d="M233.7,80.2h-10.8v-7.5h24.8v7.5l43.6,47.4V80.2h-10.8v-7.5h30.2v7.5h-10.8v69.5h-8.1l-49.5-53.8v46.8h10.2v7
		h-29.6v-7h10.8V80.2z M312.3,122.2c0,11.8,8.1,29.1,30.7,29.1c21.5,0,30.7-15.1,30.7-29.1c0-14.5-10.2-29.1-30.7-29.1
		C321.5,93.2,312.3,109.3,312.3,122.2L312.3,122.2z M329,122.2c0-12.9,4.3-22.6,14.5-22.6c9.2,0,14,8.6,14,23.7
		c0,14-5.4,22.6-14,22.6C334.4,145.4,329,136.8,329,122.2L329,122.2z M388.2,100.7h-9.7v-5.9h24.2v9.2c2.2-3.2,4.3-5.9,6.5-8.1
		c2.2-1.6,4.3-2.7,7-2.7c2.7,0,6.5,2.2,8.6,5.4c-0.5,4.8-2.7,11.3-5.4,15.6c-3.2-5.9-5.4-8.1-9.2-8.1c-3.2,0-4.8,1.6-8.1,5.4v32.3
		h10.2v5.9h-33.9v-5.9h9.7V100.7z M429.2,102.3l23.2-22.1v15.1h15.6v7h-15.6v31.2c0,7,2.7,11.8,7.5,11.8c4.3,0,7-4.3,9.2-4.3
		c1.1,0,1.6,0.5,1.6,1.6c0,2.7-4.8,8.6-16.2,8.6c-11.3,0-16.7-5.9-16.7-18.3v-30.7H429.2L429.2,102.3z M499.7,101.2
		c7-4.8,14-8.1,19.4-8.1c8.6,0,15.1,7,15.1,16.2v34.5h9.7v5.9h-32.3v-5.9h8.1v-31.2c0-6.5-3.2-9.7-8.6-9.7c-3.2,0-7,1.6-11.8,4.3
		v36.6h8.1v5.9h-32.3v-5.9h9.7V71.1h-9.7v-5.9h24.8L499.7,101.2L499.7,101.2z M540.1,100.7v-5.9h30.2v5.9h-7.5l12.4,27.5l10.2-27.5
		h-7.5v-5.9h28v5.9h-7l12.4,27.5l10.2-27.5h-8.6v-5.9h22.6v5.9h-7.5L609,150.8h-3.2L587.5,112l-14.5,38.8h-2.7l-23.2-50.1
		L540.1,100.7L540.1,100.7z M687.6,119c-1.6-15.6-11.3-25.3-25.3-25.3c-15.1,0-25.3,11.3-25.3,28c0,12.9,7,30.2,29.6,30.2
		c8.1,0,13.5-1.6,21-5.9l1.1-7c-4.3,3.2-11.8,5.9-17.2,5.9c-10.8,0-18.3-10.2-18.3-25.3h34.5V119L687.6,119z M653.2,113.1
		c0-7,3.2-13.5,9.2-13.5c5.4,0,9.2,4.8,10.2,13.5H653.2z M697.3,133.5h3.8c2.2,7.5,7.5,11.8,13.5,11.8c4.3,0,7.5-2.2,7.5-6.5
		c0-9.2-25.3-11.3-25.3-28.5c0-9.7,8.1-16.7,18.8-16.7c3.8,0,7,1.1,10.8,3.2l1.1-2.7h4.3v14.5h-4.3c-2.2-6.5-4.8-9.2-10.2-9.2
		c-4.8,0-7.5,2.2-7.5,5.4c0,11.3,25.8,10.8,25.8,29.6c0,10.2-8.1,17.2-19.4,17.2c-4.8,0-9.2-1.1-13.5-3.2l-0.5,2.7h-4.3v-17.8H697.3
		L697.3,133.5z M739.3,102.3l23.2-22.1v15.1h15.6v7h-15.6v31.2c0,7,2.7,11.8,7.5,11.8c4.3,0,7-4.3,9.2-4.3c1.1,0,1.6,0.5,1.6,1.6
		c0,2.7-4.8,8.6-16.2,8.6s-16.7-5.9-16.7-18.3v-30.7H739.3L739.3,102.3z M833,119c-1.6-15.6-11.3-25.3-25.3-25.3
		c-15.1,0-25.3,11.3-25.3,28c0,12.9,7,30.2,29.6,30.2c8.1,0,13.5-1.6,20.5-5.9l1.1-7c-4.3,3.2-11.8,5.9-17.8,5.9
		c-10.8,0-18.3-10.2-18.3-25.3H833L833,119L833,119z M798.5,113.1c0-7,3.2-13.5,9.2-13.5c5.4,0,9.2,4.8,10.2,13.5H798.5L798.5,113.1
		z M849.7,100.7H840v-5.9h24.2v9.2c2.2-3.2,4.3-5.9,7-8.1c2.2-1.6,4.3-2.7,7-2.7s6.5,2.2,8.6,5.4c-0.5,4.8-2.7,11.3-5.4,15.6
		c-3.2-5.9-5.4-8.1-9.2-8.1c-3.2,0-4.8,1.6-8.1,5.4v32.3h9.7v5.9H840v-5.9h9.7L849.7,100.7L849.7,100.7z M902.5,100.7h-9.7v-5.9H917
		v6.5c7.5-4.8,12.4-8.1,19.4-8.1c9.7,0,15.1,6.5,15.1,16.7v33.9h9.7v5.9h-32.3v-5.9h8.1v-32.8c0-5.4-3.8-8.6-8.1-8.6
		c-3.8,0-7,1.1-11.8,4.3v37.2h7.5v5.9h-32.3v-5.9h9.7v-43.1L902.5,100.7L902.5,100.7z M1004.8,80.2h-10.2v-7.5h28v7.5l22.1,45.2
		l21.5-45.2v-7.5h29.1v7.5H1085v62.5h10.2v7h-36.6v-7h10.8V94.2h-0.5l-26.4,55.5h-2.7l-25.8-53.3v46.3h10.2v7h-29.6v-7h10.2
		L1004.8,80.2L1004.8,80.2z M1165.2,143.8v5.9H1141v-5.4c-7,4.8-13.5,7-18.8,7c-11.8,0-15.6-7.5-15.6-15.6v-35h-10.2v-5.9h24.2v39.8
		c0,5.4,2.7,8.6,7.5,8.6c3.2,0,7-1.6,12.4-4.8v-38.2h-9.7v-5.9h24.2v49h10.2L1165.2,143.8L1165.2,143.8z M1166.3,102.3l23.2-22.1
		v15.1h15.6v7h-15.6v31.2c0,7,2.7,11.8,7.5,11.8c4.3,0,7-4.3,9.2-4.3c1.1,0,1.6,0.5,1.6,1.6c0,2.7-4.8,8.6-16.2,8.6
		s-16.7-5.9-16.7-18.3v-30.7H1166.3z M1278.3,143.8v5.9h-24.2v-5.4c-7,4.8-13.5,7-18.8,7c-11.8,0-15.6-7.5-15.6-15.6v-35h-9.7v-5.9
		h24.2v39.8c0,5.4,2.7,8.6,7.5,8.6c3.2,0,7-1.6,12.4-4.8v-38.2h-9.7v-5.9h24.2v49h9.7V143.8z M1335.4,142.2
		c-1.6,0.5-2.7,1.1-4.3,1.1c-3.2,0-6.5-2.7-6.5-7V112c0-10.8-8.1-18.3-18.3-18.3c-7,0-15.6,3.8-22.1,9.7l1.1,4.3
		c6.5-3.8,11.3-5.4,15.1-5.4c5.9,0,9.7,3.8,9.7,10.8v6.5l-13.5,3.2c-10.2,2.7-14.5,7-14.5,14c0,8.6,5.4,15.1,12.9,15.1
		c4.8,0,9.7-2.2,16.2-7c1.6,4.3,5.9,7,11.3,7c4.3,0,8.6-1.1,12.9-3.8V142.2L1335.4,142.2z M1310.1,125.5v13.5
		c-2.7,2.2-5.9,3.8-8.1,3.8c-3.2,0-5.9-3.2-5.9-6.5C1296.1,130.3,1298.8,127.6,1310.1,125.5z M1348.8,71.1h-9.2v-5.9h24.2v78.6h9.2
		v5.9h-33.4v-5.9h9.2V71.1L1348.8,71.1z M1384.4,74.3h2.2c0.5,0,2.2,0,2.2-1.6c0-0.5-0.5-1.6-1.6-1.6h-2.7V74.3z M1384.4,80.2h-2.2
		V70h4.8c0.5,0,3.8,0,3.8,3.2c0,2.2-1.6,2.7-2.2,2.7l2.2,4.3h-2.2l-1.6-4.3h-2.7L1384.4,80.2L1384.4,80.2z M1386.5,82.9
		c4.3,0,8.1-3.8,8.1-8.1s-3.8-8.1-8.1-8.1s-8.1,3.8-8.1,8.1C1378.5,79.7,1381.7,82.9,1386.5,82.9z M1386.5,65.2
		c5.4,0,9.7,4.3,9.7,9.7c0,5.4-4.3,9.7-9.7,9.7s-9.7-4.3-9.7-9.7C1376.8,69.5,1381.2,65.2,1386.5,65.2z"/>
</g>
</svg>
